<svg xmlns="http://www.w3.org/2000/svg" xmlns:xlink="http://www.w3.org/1999/xlink" xml:space="preserve" width="32" height="32" fill="none" viewBox="0 0 32 32"><defs><linearGradient id="a" x1="16.227" x2="16.227" y1="5.512" y2="38.765" gradientUnits="userSpaceOnUse"><stop stop-color="#5cb7ff"/><stop offset="1" stop-color="#4878dd"/></linearGradient><linearGradient id="b" x1="28.977" x2="28.977" y1="4.438" y2="27.313" gradientUnits="userSpaceOnUse"><stop stop-color="#7fd9ff"/><stop offset="1" stop-color="#639df4"/></linearGradient><linearGradient id="c" x1="28.691" x2="3.159" y1="4" y2="4" gradientUnits="userSpaceOnUse"><stop stop-color="#7dd8ff"/><stop offset="1" stop-color="#5db6ff"/></linearGradient><linearGradient xlink:href="#a" id="g" x1="16.227" x2="16.227" y1="5.512" y2="38.765" gradientUnits="userSpaceOnUse"/><linearGradient xlink:href="#b" id="j" x1="28.977" x2="28.977" y1="4.438" y2="27.313" gradientUnits="userSpaceOnUse"/><linearGradient xlink:href="#c" id="l" x1="28.691" x2="3.159" y1="4" y2="4" gradientUnits="userSpaceOnUse"/><filter id="f" width="28.875" height="28.875" x="2.289" y=".938" color-interpolation-filters="sRGB" filterUnits="userSpaceOnUse"><feFlood flood-opacity="0" result="BackgroundImageFix"/><feBlend in="SourceGraphic" in2="BackgroundImageFix" result="shape"/><feColorMatrix in="SourceAlpha" result="hardAlpha" values="0 0 0 0 0 0 0 0 0 0 0 0 0 0 0 0 0 0 127 0"/><feOffset dx="1" dy="-1"/><feGaussianBlur stdDeviation="1.5"/><feComposite in2="hardAlpha" k2="-1" k3="1" operator="arithmetic"/><feColorMatrix values="0 0 0 0 0.188235 0 0 0 0 0.470588 0 0 0 0 0.843137 0 0 0 1 0"/><feBlend in2="shape" result="effect1_innerShadow_18590_2171"/><feColorMatrix in="SourceAlpha" result="hardAlpha" values="0 0 0 0 0 0 0 0 0 0 0 0 0 0 0 0 0 0 127 0"/><feOffset dy="-1"/><feGaussianBlur stdDeviation="1.5"/><feComposite in2="hardAlpha" k2="-1" k3="1" operator="arithmetic"/><feColorMatrix values="0 0 0 0 0.27451 0 0 0 0 0.34902 0 0 0 0 0.8 0 0 0 1 0"/><feBlend in2="effect1_innerShadow_18590_2171" result="effect2_innerShadow_18590_2171"/></filter><filter id="i" width="5.5" height="28.375" x="25.727" y="1.688" color-interpolation-filters="sRGB" filterUnits="userSpaceOnUse"><feFlood flood-opacity="0" result="BackgroundImageFix"/><feBlend in="SourceGraphic" in2="BackgroundImageFix" result="shape"/><feGaussianBlur result="effect1_foregroundBlur_18590_2171" stdDeviation="1"/></filter><filter id="k" width="27.281" height="5.5" x="3.003" y="1" color-interpolation-filters="sRGB" filterUnits="userSpaceOnUse"><feFlood flood-opacity="0" result="BackgroundImageFix"/><feBlend in="SourceGraphic" in2="BackgroundImageFix" result="shape"/><feGaussianBlur result="effect1_foregroundBlur_18590_2171" stdDeviation="1"/></filter><filter id="m" width="1.397" height="1.339" x="-.199" y="-.169" style="color-interpolation-filters:sRGB"><feGaussianBlur stdDeviation="1.08"/></filter><filter id="n" width="14.832" height="17.423" x="9.24" y="6.914" color-interpolation-filters="sRGB" filterUnits="userSpaceOnUse"><feFlood flood-opacity="0" result="BackgroundImageFix"/><feBlend in="SourceGraphic" in2="BackgroundImageFix" result="shape"/><feColorMatrix in="SourceAlpha" result="hardAlpha" values="0 0 0 0 0 0 0 0 0 0 0 0 0 0 0 0 0 0 127 0"/><feOffset dx="-.4" dy=".4"/><feGaussianBlur stdDeviation=".375"/><feComposite in2="hardAlpha" k2="-1" k3="1" operator="arithmetic"/><feColorMatrix values="0 0 0 0 0.913725 0 0 0 0 0.886275 0 0 0 0 0.968627 0 0 0 1 0"/><feBlend in2="shape" result="effect1_innerShadow_18590_2284"/><feColorMatrix in="SourceAlpha" result="hardAlpha" values="0 0 0 0 0 0 0 0 0 0 0 0 0 0 0 0 0 0 127 0"/><feOffset dx=".4" dy="-.4"/><feGaussianBlur stdDeviation=".2"/><feComposite in2="hardAlpha" k2="-1" k3="1" operator="arithmetic"/><feColorMatrix values="0 0 0 0 1 0 0 0 0 0.988235 0 0 0 0 1 0 0 0 1 0"/><feBlend in2="effect1_innerShadow_18590_2284" result="effect2_innerShadow_18590_2284"/></filter><radialGradient xlink:href="#e" id="h" cx="0" cy="0" r="1" gradientTransform="rotate(136.771 13.174 7.552)scale(2.14444 2.50466)" gradientUnits="userSpaceOnUse"/><radialGradient id="e" cx="0" cy="0" r="1" gradientTransform="rotate(136.771 13.174 7.552)scale(2.14444 2.50466)" gradientUnits="userSpaceOnUse"><stop stop-color="#7bd7ff"/><stop offset="1" stop-color="#7bd7ff" stop-opacity="0"/></radialGradient></defs><g style="display:inline"><g style="display:inline"><g filter="url(#filter0_ii_18590_2171)" style="filter:url(#f)" transform="translate(0 -.003)"><rect width="27.875" height="27.875" x="2.289" y="1.938" fill="url(#a)" rx="3.6" style="fill:url(#g)"/><rect width="27.875" height="27.875" x="2.289" y="1.938" fill="url(#paint1_radial_18590_2171)" rx="3.6" style="fill:url(#h)"/></g><g filter="url(#filter1_f_18590_2171)" style="filter:url(#i)" transform="translate(0 -.003)"><path stroke="url(#b)" stroke-linecap="round" stroke-width="1.5" d="M28.477 4.438v22.875" style="stroke:url(#j)"/></g><g filter="url(#filter2_f_18590_2171)" style="display:inline;filter:url(#k)" transform="translate(0 -.003)"><path stroke="url(#c)" stroke-linecap="round" stroke-width="1.5" d="M5.753 3.75h21.781" style="stroke:url(#l)"/></g></g><path d="M124.147 185.548h-7.036l7.757-9.942c.35-.458.415-1.07.153-1.573a1.48 1.48 0 0 0-1.333-.83h-9.374c-.83 0-1.507.655-1.507 1.486 0 .83.677 1.486 1.507 1.486h6.337l-7.757 9.941a1.47 1.47 0 0 0-.153 1.574c.24.502.765.83 1.333.83h10.073c.83 0 1.486-.677 1.486-1.486 0-.83-.656-1.486-1.486-1.486" aria-label="Z" style="font-weight:800;font-size:24.4705px;line-height:1.5;font-family:&quot;Modulus Pro&quot;;-inkscape-font-specification:&quot;Modulus Pro Ultra-Bold&quot;;letter-spacing:0;word-spacing:0;direction:rtl;text-orientation:upright;white-space:pre;fill:#599fff;fill-opacity:1;stroke-width:.000284726;stroke-linecap:square;paint-order:stroke fill markers;filter:url(#m)" transform="translate(-102.88 -164.99)"/><g filter="url(#filter4_ii_18590_2284)" style="display:inline;filter:url(#n)" transform="translate(-.43 .247)"><path d="M123.92 185.68h-7.035l7.756-9.942a1.47 1.47 0 0 0 .153-1.573 1.48 1.48 0 0 0-1.332-.83h-9.374c-.83 0-1.508.655-1.508 1.486 0 .83.677 1.485 1.508 1.485h6.336l-7.756 9.942a1.47 1.47 0 0 0-.153 1.574c.24.502.764.83 1.332.83h10.073c.83 0 1.486-.678 1.486-1.486 0-.83-.655-1.486-1.486-1.486" aria-label="Z" style="font-weight:800;font-size:24.4705px;line-height:1.5;font-family:&quot;Modulus Pro&quot;;-inkscape-font-specification:&quot;Modulus Pro Ultra-Bold&quot;;letter-spacing:0;word-spacing:0;direction:rtl;text-orientation:upright;white-space:pre;display:inline;fill:#fcf2ff;stroke-width:.000284726;stroke-linecap:square;paint-order:stroke fill markers" transform="translate(-102.224 -165.368)"/></g></g></svg>